# xmcd CD database file
# Copyright (C) 1993-1998 Ti Kan
#
# Track frame offsets:
#	150
#	28403
#	44978
#	60390
#	76370
#	91058
#	114225
#	125545
#	137775
#	160665
#	175753
#	184480
#	197660
#	217743
#	233570
#
# Disc length: 3325 seconds
#
# Revision: 1
# Processed by: cddbd v1.4b41PL1 Copyright (c) Steve Scherf et al.
# Submitted via: NotifyCDPlayer(CDDB) 1.51.3
#
DISCID=c90cfb0f
DTITLE=B.B. King - The Man And his Band
DYEAR=1900
DGENRE=
TTITLE0=Sweet Sixteen
TTITLE1=The Other Night Blues
TTITLE2=It's My Own Fault Baby
TTITLE3=Evil Child
TTITLE4=Mr. Pawnbroker
TTITLE5=You Done Lost Your Good Thing Now
TTITLE6=Catfish Blues
TTITLE7=Paying The Cost To Be The Boss
TTITLE8=Everyday I Have The Blues
TTITLE9=B.B. Boogie
TTITLE10=A New Way Of Driving
TTITLE11=Walking' And Cryin'
TTITLE12=How Blue Can You Get
TTITLE13=The Letter
TTITLE14=Long Nights
EXTD=
EXTT0=
EXTT1=
EXTT2=
EXTT3=
EXTT4=
EXTT5=
EXTT6=
EXTT7=
EXTT8=
EXTT9=
EXTT10=
EXTT11=
EXTT12=
EXTT13=
EXTT14=
PLAYORDER=
